<svg width="24" height="24" viewBox="0 0 24 24" fill="none" xmlns="http://www.w3.org/2000/svg">
<path d="M12.0027 5.84573C8.59743 5.84573 5.85075 8.59302 5.85075 11.999C5.85075 15.405 8.59743 18.1523 12.0027 18.1523C15.4079 18.1523 18.1546 15.405 18.1546 11.999C18.1546 8.59302 15.4079 5.84573 12.0027 5.84573ZM12.0027 15.9995C9.80212 15.9995 8.00312 14.2054 8.00312 11.999C8.00312 9.79262 9.79677 7.99858 12.0027 7.99858C14.2086 7.99858 16.0022 9.79262 16.0022 11.999C16.0022 14.2054 14.2032 15.9995 12.0027 15.9995ZM19.8412 5.59403C19.8412 6.39197 19.1987 7.02926 18.4062 7.02926C17.6085 7.02926 16.9713 6.38662 16.9713 5.59403C16.9713 4.80143 17.6138 4.15879 18.4062 4.15879C19.1987 4.15879 19.8412 4.80143 19.8412 5.59403ZM23.9157 7.05068C23.8247 5.12811 23.3856 3.42511 21.9775 2.02201C20.5747 0.618905 18.8721 0.179766 16.9499 0.0833702C14.9689 -0.0290921 9.03112 -0.0290921 7.05008 0.0833702C5.1333 0.174411 3.43068 0.61355 2.02253 2.01665C0.614389 3.41975 0.180703 5.12275 0.0843279 7.04532C-0.0281093 9.0268 -0.0281093 14.9659 0.0843279 16.9474C0.175349 18.8699 0.614389 20.5729 2.02253 21.976C3.43068 23.3791 5.12794 23.8183 7.05008 23.9147C9.03112 24.0271 14.9689 24.0271 16.9499 23.9147C18.8721 23.8236 20.5747 23.3845 21.9775 21.976C23.3803 20.5729 23.8193 18.8699 23.9157 16.9474C24.0281 14.9659 24.0281 9.03216 23.9157 7.05068ZM21.3564 19.0734C20.9388 20.1231 20.1303 20.9317 19.0755 21.3548C17.496 21.9814 13.7481 21.8368 12.0027 21.8368C10.2572 21.8368 6.50396 21.976 4.92984 21.3548C3.88042 20.9371 3.07195 20.1284 2.64897 19.0734C2.02253 17.4936 2.16709 13.7449 2.16709 11.999C2.16709 10.2532 2.02789 6.49908 2.64897 4.92461C3.06659 3.87496 3.87507 3.0663 4.92984 2.64323C6.50931 2.01665 10.2572 2.16125 12.0027 2.16125C13.7481 2.16125 17.5014 2.02201 19.0755 2.64323C20.1249 3.06094 20.9334 3.8696 21.3564 4.92461C21.9828 6.50443 21.8383 10.2532 21.8383 11.999C21.8383 13.7449 21.9828 17.499 21.3564 19.0734Z" fill="#050505"/>
</svg>
