<svg width="24" height="24" viewBox="0 0 24 24" fill="none" xmlns="http://www.w3.org/2000/svg">
<path fill-rule="evenodd" clip-rule="evenodd" d="M22.4407 13.651C22.9427 10.416 23.4448 7.18105 23.9528 3.9467C24.0534 3.30373 24.0343 2.72082 23.4787 2.28944C22.9009 1.84331 22.3009 1.97904 21.686 2.24423C20.7584 2.64439 19.8252 3.03291 18.8921 3.42132C18.4806 3.5926 18.0692 3.76387 17.6583 3.93618L17.0173 4.20465C11.6444 6.45525 6.27153 8.70586 0.897663 10.9545L0.853376 10.9728C0.408319 11.1577 -0.0365369 11.3425 0.0023805 11.9414C0.0406953 12.527 0.496072 12.6673 0.945441 12.8058L1.01196 12.8264C1.34629 12.9307 1.68139 13.0328 2.01644 13.1348C2.79285 13.3712 3.56903 13.6076 4.33488 13.8722C5.70214 14.3447 6.91596 14.1332 8.10967 13.3167C10.2176 11.8758 12.3432 10.4609 14.4689 9.04596L14.4741 9.04257C14.9469 8.72795 15.4196 8.41332 15.8922 8.09832L16.3214 7.81208C16.5629 7.65106 16.8043 7.48984 17.0456 7.32854C17.0779 7.30701 17.1099 7.28473 17.1419 7.26245L17.1427 7.26189L17.1435 7.26132L17.146 7.25963C17.2343 7.19825 17.3229 7.13668 17.4181 7.08864C17.6477 6.97386 17.8721 6.97809 18.0414 7.20013C18.1917 7.39584 18.1568 7.60105 18.0107 7.7789C17.9109 7.90092 17.7949 8.00977 17.6793 8.11825L17.6107 8.18292C17.1792 8.59428 16.7477 9.00563 16.3161 9.4168L15.5155 10.1796L15.3615 10.3263C13.8682 11.7489 12.3752 13.1714 10.8844 14.5961C10.1119 15.3348 10.1479 16.0482 11.0093 16.6312C12.5675 17.6854 14.1295 18.7337 15.6915 19.782L15.7169 19.7992L15.7554 19.8251L16.8118 20.5342L17.5533 21.0322L18.0682 21.3783L18.4647 21.645C18.8076 21.8754 19.1769 22.008 19.5939 21.9986C20.5431 21.988 21.2384 21.3798 21.394 20.3823C21.7442 18.1388 22.0924 15.895 22.4407 13.651Z" fill="#050505"/>
</svg>
