<svg width="24" height="24" viewBox="0 0 24 24" fill="none" xmlns="http://www.w3.org/2000/svg">
<path d="M21.5331 6.98338C21.5483 7.20212 21.5483 7.42091 21.5483 7.63965C21.5483 14.3115 16.5991 21.999 7.55333 21.999C4.7665 21.999 2.17768 21.1709 0 19.7334C0.395955 19.7803 0.776628 19.7959 1.18782 19.7959C3.48728 19.7959 5.60407 18.999 7.29444 17.6397C5.13199 17.5928 3.31979 16.1397 2.69542 14.1396C3.00001 14.1865 3.30456 14.2178 3.62439 14.2178C4.066 14.2178 4.50766 14.1552 4.9188 14.0459C2.66499 13.5771 0.974582 11.5459 0.974582 9.09276V9.03029C1.62938 9.40529 2.39087 9.63966 3.19792 9.67088C1.87304 8.76461 1.00505 7.21775 1.00505 5.46774C1.00505 4.53026 1.24866 3.67088 1.67508 2.92088C4.09642 5.98337 7.73605 7.98334 11.8172 8.20213C11.7411 7.82712 11.6954 7.43654 11.6954 7.0459C11.6954 4.26462 13.8883 1.99902 16.6142 1.99902C18.0304 1.99902 19.3096 2.6084 20.2081 3.59277C21.3198 3.37403 22.3858 2.95214 23.33 2.37403C22.9644 3.54593 22.1878 4.5303 21.1675 5.15526C22.1574 5.04594 23.1168 4.76463 24 4.37404C23.3301 5.374 22.4924 6.26459 21.5331 6.98338Z" fill="#050505"/>
</svg>
