<svg width="24" height="24" viewBox="0 0 24 24" fill="none" xmlns="http://www.w3.org/2000/svg">
<path d="M9.84282 0.183404C4.47574 1.10394 0.285107 5.83718 0.0164266 11.2925C-0.115305 13.9666 0.544658 16.4279 2.01849 18.6698C2.07979 18.7625 2.10196 18.9166 2.07587 19.0263C1.75502 20.3607 1.42243 21.6925 1.08071 23.0662C1.1981 23.0361 1.27636 23.0165 1.35461 22.9943C2.55454 22.6483 3.75578 22.3036 4.95441 21.9511C5.12527 21.9002 5.25439 21.9158 5.40699 22.0177C6.93429 23.0387 8.61289 23.6799 10.4337 23.8992C13.8378 24.3092 16.9081 23.4592 19.5779 21.2917C24.0046 17.6957 25.2763 11.4257 22.6247 6.42214C20.1427 1.74243 15.1016 -0.718849 9.84282 0.183404ZM19.0236 16.2098C18.901 17.5965 18.1758 18.3995 16.7711 18.6515C16.402 18.7168 16.0264 18.7403 15.7564 18.7703C14.473 18.7286 13.3578 18.406 12.2831 17.9647C8.27248 16.3156 5.76566 13.3333 4.62181 9.17721C4.30357 8.02165 4.67529 7.0293 5.49437 6.19625C5.91304 5.77059 6.36954 5.37626 6.97472 5.23132C7.49643 5.10728 8.05727 5.30836 8.26856 5.79017C8.67028 6.7094 9.02504 7.64952 9.35633 8.59617C9.52327 9.07145 9.37198 9.51017 9.00808 9.87446C8.77201 10.1108 8.56593 10.3785 8.32986 10.6161C8.19813 10.7493 8.19683 10.8655 8.26595 11.0274C8.62984 11.8774 9.17373 12.5969 9.84021 13.2249C10.8993 14.2238 12.1266 14.9602 13.4622 15.5269C13.59 15.5818 13.6669 15.5622 13.7595 15.463C14.126 15.0673 14.5004 14.6782 14.8734 14.2878C15.3977 13.7381 15.7903 13.6467 16.4737 13.9823C17.1402 14.31 17.7898 14.6717 18.4367 15.036C18.8827 15.2919 19.0706 15.6836 19.0236 16.2098Z" fill="#050505"/>
</svg>
